<?xml version="1.0" encoding="UTF-8" standalone="no"?>
<svg
   xmlns:dc="http://purl.org/dc/elements/1.1/"
   xmlns:cc="http://creativecommons.org/ns#"
   xmlns:rdf="http://www.w3.org/1999/02/22-rdf-syntax-ns#"
   xmlns:svg="http://www.w3.org/2000/svg"
   xmlns="http://www.w3.org/2000/svg"
   xmlns:sodipodi="http://sodipodi.sourceforge.net/DTD/sodipodi-0.dtd"
   xmlns:inkscape="http://www.inkscape.org/namespaces/inkscape"
   width="32"
   height="32"
   viewBox="0 0 8.4666665 8.4666669"
   version="1.1"
   id="svg8"
   inkscape:version="1.0.1 (3bc2e813f5, 2020-09-07)"
   sodipodi:docname="Tanooki.svg">
  <defs
     id="defs2" />
  <sodipodi:namedview
     id="base"
     pagecolor="#ffffff"
     bordercolor="#666666"
     borderopacity="1.0"
     inkscape:pageopacity="0.0"
     inkscape:pageshadow="2"
     inkscape:zoom="17.124328"
     inkscape:cx="21.892145"
     inkscape:cy="15.696609"
     inkscape:document-units="px"
     inkscape:current-layer="layer1"
     inkscape:document-rotation="0"
     showgrid="true"
     units="px"
     inkscape:window-width="1920"
     inkscape:window-height="1027"
     inkscape:window-x="-8"
     inkscape:window-y="-8"
     inkscape:window-maximized="1">
    <inkscape:grid
       type="xygrid"
       id="grid833"
       empspacing="4" />
  </sodipodi:namedview>
  <metadata
     id="metadata5">
    <rdf:RDF>
      <cc:Work
         rdf:about="">
        <dc:format>image/svg+xml</dc:format>
        <dc:type
           rdf:resource="http://purl.org/dc/dcmitype/StillImage" />
        <dc:title></dc:title>
      </cc:Work>
    </rdf:RDF>
  </metadata>
  <g
     inkscape:label="Ebene 1"
     inkscape:groupmode="layer"
     id="layer1">
    <path
       id="rect923"
       style="fill:#000000;stroke:none;stroke-width:9.99999"
       d="M 10,3 V 7 H 9 V 8 H 8 V 9 H 7 v 8 h 1 v 1 h 1 v 1 h 1 v 1 h 1 v 1 h 2 v 1 h 12 v -1 h 2 v -1 h 1 v -1 h 1 v -1 h 1 v -1 h 1 V 9 H 30 V 8 H 29 V 7 H 28 V 3 H 25 V 4 H 24 V 5 H 23 V 4 H 22 V 3 H 16 V 4 H 15 V 5 H 14 V 4 H 13 V 3 Z"
       transform="scale(0.26458333)"
       sodipodi:nodetypes="ccccccccccccccccccccccccccccccccccccccccccccccccccccc" />
    <path
       id="rect892"
       style="fill:#ffffff;stroke:none;stroke-width:9.99999"
       d="M 12 9 L 12 10 L 11 10 L 11 12 L 10 12 L 10 15 L 10 16 L 11 16 L 11 17 L 12 17 L 12 18 L 13 18 L 13 19 L 14 19 L 14 20 L 16 20 L 16 21 L 22 21 L 22 20 L 24 20 L 24 19 L 25 19 L 25 18 L 26 18 L 26 17 L 27 17 L 27 16 L 28 16 L 28 15 L 28 12 L 27 12 L 27 10 L 26 10 L 26 9 L 22 9 L 22 10 L 21 10 L 21 11 L 17 11 L 17 10 L 16 10 L 16 9 L 12 9 z "
       transform="scale(0.26458333)" />
    <path
       id="rect835"
       style="fill:#000000;stroke:none;stroke-width:9.99999"
       d="M 13 10 L 13 11 L 12 11 L 12 13 L 13 13 L 13 14 L 15 14 L 15 13 L 16 13 L 16 11 L 15 11 L 15 10 L 13 10 z "
       transform="scale(0.26458333)" />
    <path
       id="rect839"
       style="fill:#000000;stroke:none;stroke-width:9.99999"
       d="M 17 13 L 17 14 L 16 14 L 16 15 L 15 15 L 15 18 L 16 18 L 16 19 L 17 19 L 17 20 L 18 20 L 20 20 L 21 20 L 21 19 L 22 19 L 22 18 L 23 18 L 23 15 L 22 15 L 22 14 L 21 14 L 21 13 L 17 13 z "
       transform="scale(0.26458333)" />
    <path
       id="rect849"
       style="fill:#eeeeec;stroke:none;stroke-width:9.99999"
       d="M 18 14 L 18 15 L 17 15 L 17 16 L 18 16 L 18 17 L 20 17 L 20 16 L 21 16 L 21 15 L 20 15 L 20 14 L 18 14 z "
       transform="scale(0.26458333)" />
    <path
       id="rect855"
       style="fill:#000000;stroke:none;stroke-width:9.99999"
       d="M 23 10 L 23 11 L 22 11 L 22 13 L 23 13 L 23 14 L 25 14 L 25 13 L 26 13 L 26 11 L 25 11 L 25 10 L 23 10 z "
       transform="scale(0.26458333)" />
    <path
       id="rect973"
       style="fill:#ffffff;stroke:none;stroke-width:9.99999"
       d="M 11 4 L 11 7 L 12 7 L 13 7 L 13 5 L 12 5 L 12 4 L 11 4 z "
       transform="scale(0.26458333)" />
    <path
       id="path980"
       style="fill:#ffffff;stroke:none;stroke-width:2.64583"
       d="m 7.14375,1.0583334 v 0.79375 H 6.8791667 6.6145833 V 1.3229167 H 6.8791667 V 1.0583334 Z" />
  </g>
</svg>
