<?xml version="1.0" encoding="UTF-8" standalone="no"?>
<svg
   xmlns:dc="http://purl.org/dc/elements/1.1/"
   xmlns:cc="http://creativecommons.org/ns#"
   xmlns:rdf="http://www.w3.org/1999/02/22-rdf-syntax-ns#"
   xmlns:svg="http://www.w3.org/2000/svg"
   xmlns="http://www.w3.org/2000/svg"
   xmlns:sodipodi="http://sodipodi.sourceforge.net/DTD/sodipodi-0.dtd"
   xmlns:inkscape="http://www.inkscape.org/namespaces/inkscape"
   width="32"
   height="32"
   viewBox="0 0 8.4666665 8.4666669"
   version="1.1"
   id="svg8"
   inkscape:version="1.0.1 (3bc2e813f5, 2020-09-07, custom)"
   sodipodi:docname="Tanooki1.svg"
   inkscape:export-filename="/home/georg/Daten/Tanooki.png"
   inkscape:export-xdpi="1536"
   inkscape:export-ydpi="1536">
  <defs
     id="defs2" />
  <sodipodi:namedview
     id="base"
     pagecolor="#ffffff"
     bordercolor="#666666"
     borderopacity="1.0"
     inkscape:pageopacity="0.0"
     inkscape:pageshadow="2"
     inkscape:zoom="0.79394531"
     inkscape:cx="619.90106"
     inkscape:cy="-332.68316"
     inkscape:document-units="px"
     inkscape:current-layer="layer1"
     inkscape:document-rotation="0"
     showgrid="true"
     units="px"
     inkscape:window-width="1920"
     inkscape:window-height="1008"
     inkscape:window-x="0"
     inkscape:window-y="0"
     inkscape:window-maximized="1">
    <inkscape:grid
       type="xygrid"
       id="grid833"
       empspacing="4" />
  </sodipodi:namedview>
  <metadata
     id="metadata5">
    <rdf:RDF>
      <cc:Work
         rdf:about="">
        <dc:format>image/svg+xml</dc:format>
        <dc:type
           rdf:resource="http://purl.org/dc/dcmitype/StillImage" />
        <dc:title></dc:title>
      </cc:Work>
    </rdf:RDF>
  </metadata>
  <g
     inkscape:label="Ebene 1"
     inkscape:groupmode="layer"
     id="layer1">
    <rect
       style="fill:#edd400;stroke-width:0.264583"
       id="rect840"
       width="7.4083333"
       height="6.8791666"
       x="0.52916664"
       y="1.0583333" />
    <path
       id="rect923"
       style="fill:#c4a000;stroke:none;stroke-width:2.64583"
       d="M 1.8520834,1.8520834 V 2.9104167 H 1.5875001 V 3.175 H 1.3229167 V 3.4395834 H 1.0583334 V 5.55625 H 1.3229167 V 5.8208333 H 1.5875001 V 6.0854167 H 1.8520834 V 6.35 H 2.1166667 V 6.6145833 H 2.6458334 V 6.8791667 H 5.8208333 V 6.6145833 H 6.35 V 6.35 H 6.6145833 V 6.0854167 H 6.8791667 V 5.8208333 H 7.14375 V 5.55625 H 7.4083333 V 3.4395834 H 7.14375 V 3.175 H 6.8791667 V 2.9104167 H 6.6145833 V 1.8520834 h -0.79375 V 2.1166667 H 5.55625 V 2.3812501 H 5.2916667 V 2.1166667 H 5.0270833 V 1.8520834 H 3.4395834 V 2.1166667 H 3.175 V 2.3812501 H 2.9104167 V 2.1166667 H 2.6458334 V 1.8520834 Z"
       sodipodi:nodetypes="ccccccccccccccccccccccccccccccccccccccccccccccccccccc" />
    <path
       id="rect892"
       style="fill:#ffffff;stroke:none;stroke-width:2.64583"
       d="M 2.38125,3.4395834 V 3.7041667 H 2.1166667 V 4.2333334 H 1.8520834 v 0.79375 0.2645833 H 2.1166667 V 5.55625 H 2.38125 V 5.8208333 H 2.6458334 V 6.0854167 H 2.9104167 V 6.35 H 3.4395834 V 6.6145833 H 5.0270833 V 6.35 H 5.55625 V 6.0854167 H 5.8208333 V 5.8208333 H 6.0854167 V 5.55625 H 6.35 V 5.2916667 H 6.6145833 V 5.0270834 4.2333334 H 6.35 V 3.7041667 H 6.0854167 V 3.4395834 H 5.0270833 V 3.7041667 H 4.7625 V 3.96875 H 3.7041667 V 3.7041667 H 3.4395834 V 3.4395834 Z" />
    <path
       id="rect835"
       style="fill:#c4a000;stroke:none;stroke-width:2.64583"
       d="M 2.6458334,3.7041667 V 3.96875 H 2.38125 V 4.4979167 H 2.6458334 V 4.7625 H 3.175 V 4.4979167 H 3.4395834 V 3.96875 H 3.175 V 3.7041667 Z" />
    <path
       id="rect839"
       style="fill:#c4a000;stroke:none;stroke-width:2.64583"
       d="M 3.7041667,4.4979167 V 4.7625 H 3.4395834 V 5.0270834 H 3.175 V 5.8208333 H 3.4395834 V 6.0854167 H 3.7041667 V 6.35 H 3.96875 4.4979167 4.7625 V 6.0854167 H 5.0270833 V 5.8208333 H 5.2916667 V 5.0270834 H 5.0270833 V 4.7625 H 4.7625 V 4.4979167 Z" />
    <path
       id="rect849"
       style="fill:#eeeeec;stroke:none;stroke-width:2.64583"
       d="M 3.96875,4.7625 V 5.0270834 H 3.7041667 V 5.2916667 H 3.96875 V 5.55625 H 4.4979167 V 5.2916667 H 4.7625 V 5.0270834 H 4.4979167 V 4.7625 Z" />
    <path
       id="rect855"
       style="fill:#c4a000;stroke:none;stroke-width:2.64583"
       d="M 5.2916667,3.7041667 V 3.96875 H 5.0270833 V 4.4979167 H 5.2916667 V 4.7625 H 5.8208333 V 4.4979167 H 6.0854167 V 3.96875 H 5.8208333 V 3.7041667 Z" />
    <path
       id="rect973"
       style="fill:#ffffff;stroke:none;stroke-width:2.64583"
       d="m 2.1166667,2.1166667 v 0.79375 H 2.38125 2.6458334 V 2.3812501 H 2.38125 V 2.1166667 Z" />
    <path
       id="path980"
       style="fill:#ffffff;stroke:none;stroke-width:2.64583"
       d="m 6.3500001,2.1166668 v 0.79375 H 6.0854168 5.8208334 V 2.3812501 H 6.0854168 V 2.1166668 Z" />
    <rect
       style="fill:#edd400;stroke-width:0.264583"
       id="rect842"
       width="2.6458333"
       height="0.79374999"
       x="0.52916664"
       y="0.52916664" />
    <rect
       style="fill:#c4a000;stroke-width:0.264583"
       id="rect844"
       width="2.6458333"
       height="0.26458332"
       x="0.52916664"
       y="0.26458332" />
    <rect
       style="fill:#c4a000;stroke-width:0.264583"
       id="rect846"
       width="0.26458332"
       height="0.52916664"
       x="3.175"
       y="0.52916664" />
    <rect
       style="fill:#c4a000;stroke-width:0.264583"
       id="rect848"
       width="4.4979167"
       height="0.26458332"
       x="3.4395833"
       y="0.79374999" />
    <rect
       style="fill:#c4a000;stroke-width:0.264583"
       id="rect850"
       width="0.26458332"
       height="6.8791666"
       x="7.9375"
       y="1.0583333" />
    <rect
       style="fill:#c4a000;stroke-width:0.264583"
       id="rect852"
       width="7.4083333"
       height="0.26458332"
       x="0.52916664"
       y="7.9375" />
    <rect
       style="fill:#c4a000;stroke-width:0.264583"
       id="rect854"
       width="0.26458332"
       height="7.4083333"
       x="0.26458332"
       y="0.52916664" />
    <rect
       style="fill:#d3d7cf;stroke-width:2.25637"
       id="rect856"
       width="270.93335"
       height="132.29167"
       x="-4.2333336"
       y="-152.39999"
       inkscape:export-xdpi="96"
       inkscape:export-ydpi="96" />
    <rect
       style="fill:#edd400;stroke-width:3.09562"
       id="rect840-3"
       width="86.67746"
       height="80.486214"
       x="49.288101"
       y="-106.71995"
       transform="rotate(-15)" />
    <path
       id="rect923-6"
       style="fill:#c4a000;stroke:none;stroke-width:30.9562"
       d="m 37.341817,-110.87585 3.204824,11.960568 -2.99014,0.801205 0.801208,2.990149 -2.990138,0.801205 0.801206,2.99014 -2.990151,0.801208 6.409652,23.921149 2.990151,-0.801208 0.801206,2.990139 2.990138,-0.801205 0.801205,2.990137 2.990139,-0.801205 0.801208,2.990149 2.990151,-0.801209 0.801205,2.99014 5.980273,-1.60241 0.801206,2.99014 35.88172,-9.614478 -0.801206,-2.99014 5.980286,-1.602413 -0.8012,-2.990139 2.99014,-0.801206 -0.80121,-2.990149 2.99014,-0.801207 -0.8012,-2.990137 2.99014,-0.801205 -0.80121,-2.99014 2.99014,-0.801205 -6.40965,-23.921153 -2.99014,0.80121 -0.80121,-2.99014 -2.990135,0.80121 -0.801208,-2.99015 -2.990145,0.8012 -3.204824,-11.96056 -8.970428,2.40362 0.801206,2.99013 -2.99014,0.80121 0.801208,2.99015 -2.990139,0.8012 -0.801208,-2.99014 -2.990149,0.8012 -0.801205,-2.99014 -17.940856,4.80724 0.801206,2.99014 -2.990139,0.80121 0.801208,2.99015 -2.99014,0.8012 -0.801208,-2.99015 -2.990158,0.80121 -0.801206,-2.99014 z"
       sodipodi:nodetypes="ccccccccccccccccccccccccccccccccccccccccccccccccccccc" />
    <path
       id="rect892-7"
       style="fill:#ffffff;stroke:none;stroke-width:30.9562"
       d="m 48.129343,-94.537408 0.801207,2.990142 -2.990139,0.801206 1.602414,5.980289 -2.990151,0.801208 2.403619,8.970429 0.801205,2.990138 2.990151,-0.801208 0.801209,2.990151 2.990138,-0.801206 0.801205,2.99014 2.990135,-0.801204 0.801205,2.990137 2.990158,-0.801211 0.801208,2.990149 5.980279,-1.60241 0.801205,2.990139 17.940856,-4.807238 -0.801206,-2.990139 5.980288,-1.602413 -0.801208,-2.990149 2.99014,-0.801206 -0.801205,-2.990137 2.990149,-0.801208 -0.801206,-2.99014 2.99014,-0.801205 -0.801209,-2.990151 2.99014,-0.801205 -0.80121,-2.990139 -2.403615,-8.970428 -2.990139,0.801205 -1.602414,-5.980288 -2.990139,0.8012 -0.801206,-2.99014 -11.960577,3.20483 0.801206,2.990141 -2.990139,0.801206 0.801208,2.99015 -11.960566,3.204824 -0.801209,-2.99015 -2.990149,0.801208 -0.801206,-2.990142 z" />
    <path
       id="rect835-5"
       style="fill:#c4a000;stroke:none;stroke-width:30.9562"
       d="m 51.920684,-92.34847 0.801208,2.99015 -2.990134,0.801204 1.602411,5.980279 2.990134,-0.801204 0.801208,2.99015 5.980298,-1.602416 -0.801208,-2.99015 2.990139,-0.801206 -1.60241,-5.980278 -2.99014,0.801205 -0.801208,-2.99015 z" />
    <path
       id="rect839-3"
       style="fill:#c4a000;stroke:none;stroke-width:30.9562"
       d="m 66.284889,-86.582871 0.801209,2.99015 -2.990149,0.801208 0.801205,2.99014 -2.990139,0.801205 2.403619,8.970429 2.990139,-0.801206 0.801205,2.990138 2.990149,-0.801208 0.801208,2.990149 2.990139,-0.801206 5.980289,-1.602413 2.990139,-0.801206 -0.801208,-2.990149 2.990139,-0.801205 -0.801205,-2.990137 2.990149,-0.801208 -2.403619,-8.970429 -2.990149,0.801208 -0.801205,-2.990139 -2.990139,0.801205 -0.801209,-2.99015 z" />
    <path
       id="rect849-5"
       style="fill:#eeeeec;stroke:none;stroke-width:30.9562"
       d="m 70.076237,-84.393926 0.801205,2.990139 -2.990139,0.801206 0.801205,2.990138 2.99014,-0.801205 0.801208,2.990151 5.980288,-1.602414 -0.801208,-2.990151 2.990139,-0.801205 -0.801205,-2.990139 -2.990139,0.801206 -0.801206,-2.990139 z" />
    <path
       id="rect855-6"
       style="fill:#c4a000;stroke:none;stroke-width:30.9562"
       d="m 81.822125,-100.36054 0.801209,2.990153 -2.990149,0.801208 1.602411,5.980279 2.990149,-0.801208 0.801208,2.99015 5.980278,-1.602411 -0.801208,-2.99015 2.990149,-0.801208 -1.602411,-5.980279 -2.990149,0.801208 -0.801208,-2.990152 z" />
    <path
       id="rect973-2"
       style="fill:#ffffff;stroke:none;stroke-width:30.9562"
       d="m 41.133173,-108.68692 2.403619,8.970429 2.990138,-0.801209 2.990134,-0.8012 -1.60241,-5.98028 -2.990135,0.80121 -0.801208,-2.99015 z" />
    <path
       id="path980-9"
       style="fill:#ffffff;stroke:none;stroke-width:30.9562"
       d="m 88.975454,-121.50622 2.403619,8.97043 -2.99014,0.8012 -2.990149,0.80121 -1.60241,-5.98028 2.990149,-0.8012 -0.801208,-2.99015 z" />
    <rect
       style="fill:#edd400;stroke-width:3.09562"
       id="rect842-1"
       width="30.956234"
       height="9.286871"
       x="49.288101"
       y="-112.9112"
       transform="rotate(-15)" />
    <rect
       style="fill:#c4a000;stroke-width:3.09562"
       id="rect844-2"
       width="30.956234"
       height="3.0956235"
       x="49.288101"
       y="-116.00683"
       transform="rotate(-15)" />
    <rect
       style="fill:#c4a000;stroke-width:3.09562"
       id="rect846-7"
       width="3.0956235"
       height="6.191247"
       x="80.244362"
       y="-112.9112"
       transform="rotate(-15)" />
    <rect
       style="fill:#c4a000;stroke-width:3.09562"
       id="rect848-0"
       width="52.625603"
       height="3.0956235"
       x="83.339951"
       y="-109.81557"
       transform="rotate(-15)" />
    <rect
       style="fill:#c4a000;stroke-width:3.09562"
       id="rect850-9"
       width="3.0956235"
       height="80.486214"
       x="135.96556"
       y="-106.71995"
       transform="rotate(-15)" />
    <rect
       style="fill:#c4a000;stroke-width:3.09562"
       id="rect852-3"
       width="86.67746"
       height="3.0956235"
       x="49.288101"
       y="-26.233706"
       transform="rotate(-15)" />
    <rect
       style="fill:#c4a000;stroke-width:3.09562"
       id="rect854-6"
       width="3.0956235"
       height="86.67746"
       x="46.192429"
       y="-112.9112"
       transform="rotate(-15)" />
    <text
       xml:space="preserve"
       style="font-style:normal;font-weight:normal;font-size:15.4381px;line-height:1.25;font-family:sans-serif;fill:#000000;fill-opacity:1;stroke:none;stroke-width:0.385953"
       x="124.84812"
       y="-113.77035"
       id="text920"><tspan
         sodipodi:role="line"
         id="tspan918"
         x="124.84812"
         y="-113.77035"
         style="font-style:normal;font-variant:normal;font-weight:normal;font-stretch:normal;font-family:TSCu_Comic;-inkscape-font-specification:TSCu_Comic;fill:#555753;stroke-width:0.385953">The only file manager</tspan><tspan
         sodipodi:role="line"
         x="124.84812"
         y="-93.357079"
         style="font-style:normal;font-variant:normal;font-weight:normal;font-stretch:normal;font-family:TSCu_Comic;-inkscape-font-specification:TSCu_Comic;fill:#555753;stroke-width:0.385953"
         id="tspan922">you'll ever need.</tspan></text>
  </g>
</svg>
